{
  "accessors": [
    {
      "bufferView": 2,
      "componentType": 5126,
      "count": 53451,
      "max": [
        16.36487579345703,
        -16.451274871826172,
        55.233741760253906
      ],
      "min": [
        -21.563398361206055,
        -46.17952346801758,
        -37.4391975402832
      ],
      "type": "VEC3"
    },
    {
      "bufferView": 2,
      "byteOffset": 641412,
      "componentType": 5126,
      "count": 53451,
      "max": [
        0.9999993443489075,
        0.9999980926513672,
        0.9999953508377075
      ],
      "min": [
        -0.9999998807907104,
        -0.9999808073043823,
        -0.9999998807907104
      ],
      "type": "VEC3"
    },
    {
      "bufferView": 1,
      "componentType": 5126,
      "count": 53451,
      "max": [
        0.9997415542602539,
        0.9343260526657104
      ],
      "min": [
        0.000244140625,
        0.0002475572982802987
      ],
      "type": "VEC2"
    },
    {
      "bufferView": 0,
      "componentType": 5125,
      "count": 278802,
      "type": "SCALAR"
    }
  ],
  "asset": {
    "extras": {
      "author": "daniel.gayo (https://sketchfab.com/daniel.gayo)",
      "license": "CC-BY-4.0 (http://creativecommons.org/licenses/by/4.0/)",
      "source": "https://sketchfab.com/3d-models/capella-sistina-21bace4e921344e79efb9c6f2e048ce6",
      "title": "Capella Sistina"
    },
    "generator": "Sketchfab-12.65.0",
    "version": "2.0"
  },
  "bufferViews": [
    {
      "buffer": 0,
      "byteLength": 1115208,
      "name": "floatBufferViews",
      "target": 34963
    },
    {
      "buffer": 0,
      "byteLength": 427608,
      "byteOffset": 1115208,
      "byteStride": 8,
      "name": "floatBufferViews",
      "target": 34962
    },
    {
      "buffer": 0,
      "byteLength": 1282824,
      "byteOffset": 1542816,
      "byteStride": 12,
      "name": "floatBufferViews",
      "target": 34962
    }
  ],
  "buffers": [
    {
      "byteLength": 2825640,
      "uri": "scene.bin"
    }
  ],
  "extensionsUsed": [
    "KHR_materials_unlit"
  ],
  "images": [
    {
      "uri": "textures/sistina_u1_v1_baseColor.jpeg"
    }
  ],
  "materials": [
    {
      "doubleSided": true,
      "extensions": {
        "KHR_materials_unlit": {}
      },
      "name": "sistina_u1_v1",
      "pbrMetallicRoughness": {
        "baseColorTexture": {
          "index": 0
        },
        "metallicFactor": 0.0
      }
    }
  ],
  "meshes": [
    {
      "name": "Object_0",
      "primitives": [
        {
          "attributes": {
            "NORMAL": 1,
            "POSITION": 0,
            "TEXCOORD_0": 2
          },
          "indices": 3,
          "material": 0,
          "mode": 4
        }
      ]
    }
  ],
  "nodes": [
    {
      "children": [
        1
      ],
      "matrix": [
        0.7899347721672711,
        -1.9270103164099974e-16,
        0.022042131022290135,
        0.0,
        -1.7409817745648973e-16,
        -0.7902422547340393,
        -7.2267450900646e-16,
        0.0,
        0.022042131022290135,
        7.175940573005716e-16,
        -0.7899347721672711,
        0.0,
        -0.2491818368434906,
        -22.41810417175294,
        40.281684875488274,
        1.0
      ],
      "name": "Sketchfab_model"
    },
    {
      "children": [
        2
      ],
      "name": "sistina.obj.cleaner.materialmerger.gles"
    },
    {
      "mesh": 0,
      "name": "Object_2"
    }
  ],
  "samplers": [
    {
      "magFilter": 9729,
      "minFilter": 9987,
      "wrapS": 10497,
      "wrapT": 10497
    }
  ],
  "scene": 0,
  "scenes": [
    {
      "name": "Sketchfab_Scene",
      "nodes": [
        0
      ]
    }
  ],
  "textures": [
    {
      "sampler": 0,
      "source": 0
    }
  ]
}
